HIERARCHY
ROOT Hips
{
 OFFSET 0.000000 0.000000 0.000000
 CHANNELS 6 Xposition Yposition Zposition Yrotation Xrotation Zrotation
 JOINT Chest
 {
  OFFSET 0.000000 0.114328 -0.012703
  CHANNELS 3 Yrotation Xrotation Zrotation
  JOINT Chest2
  {
   OFFSET 0.000000 0.109600 0.000000
   CHANNELS 3 Yrotation Xrotation Zrotation
   JOINT Chest3
   {
    OFFSET 0.000000 0.100057 0.000037
    CHANNELS 3 Yrotation Xrotation Zrotation
    JOINT Chest4
    {
     OFFSET 0.000000 0.099945 0.000037
     CHANNELS 3 Yrotation Xrotation Zrotation
     JOINT Neck
     {
      OFFSET 0.000000 0.136615 0.000000
      CHANNELS 3 Yrotation Xrotation Zrotation
      JOINT Head
      {
       OFFSET 0.000000 0.086380 0.000454
       CHANNELS 3 Yrotation Xrotation Zrotation
       End Site
       {
        OFFSET 0.000000 0.154306 0.000133
       }
      }
     }
     JOINT RightCollar
     {
      OFFSET -0.027497 0.076558 0.000000
      CHANNELS 3 Yrotation Xrotation Zrotation
      JOINT RightShoulder
      {
       OFFSET -0.129121 0.000000 0.000000
       CHANNELS 3 Yrotation Xrotation Zrotation
       JOINT RightElbow
       {
        OFFSET -0.284532 0.000000 0.000000
        CHANNELS 3 Yrotation Xrotation Zrotation
        JOINT RightWrist
        {
         OFFSET -0.229938 0.000000 -0.000022
         CHANNELS 3 Yrotation Xrotation Zrotation
         End Site
         {
          OFFSET -0.197245 0.000000 0.000000
         }
        }
       }
      }
     }
     JOINT LeftCollar
     {
      OFFSET 0.027497 0.076558 0.000000
      CHANNELS 3 Yrotation Xrotation Zrotation
      JOINT LeftShoulder
      {
       OFFSET 0.129121 0.000000 0.000000
       CHANNELS 3 Yrotation Xrotation Zrotation
       JOINT LeftElbow
       {
        OFFSET 0.284532 0.000000 0.000000
        CHANNELS 3 Yrotation Xrotation Zrotation
        JOINT LeftWrist
        {
         OFFSET 0.229938 0.000000 -0.000022
         CHANNELS 3 Yrotation Xrotation Zrotation
         End Site
         {
          OFFSET 0.197245 0.000000 0.000000
         }
        }
       }
      }
     }
    }
   }
  }
 }
 JOINT RightHip
 {
  OFFSET -0.093852 -0.000079 0.000009
  CHANNELS 3 Yrotation Xrotation Zrotation
  JOINT RightKnee
  {
   OFFSET 0.000000 -0.450301 0.000055
   CHANNELS 3 Yrotation Xrotation Zrotation
   JOINT RightAnkle
   {
    OFFSET 0.000000 -0.403972 0.000066
    CHANNELS 3 Yrotation Xrotation Zrotation
    JOINT RightToe
    {
     OFFSET 0.000000 -0.080118 0.183255
     CHANNELS 3 Yrotation Xrotation Zrotation
     End Site
     {
      OFFSET 0.000000 -0.016568 0.073719
     }
    }
   }
  }
 }
 JOINT LeftHip
 {
  OFFSET 0.093852 -0.000100 0.000011
  CHANNELS 3 Yrotation Xrotation Zrotation
  JOINT LeftKnee
  {
   OFFSET 0.000000 -0.450301 0.000055
   CHANNELS 3 Yrotation Xrotation Zrotation
   JOINT LeftAnkle
   {
    OFFSET 0.000000 -0.403972 0.000066
    CHANNELS 3 Yrotation Xrotation Zrotation
    JOINT LeftToe
    {
     OFFSET 0.000000 -0.080118 0.183255
     CHANNELS 3 Yrotation Xrotation Zrotation
     End Site
     {
      OFFSET 0.000000 -0.016568 0.073719
     }
    }
   }
  }
 }
}
MOTION
Frames: 14
Frame Time: 0.016667
0.000000 0.951280 0.000000 0.000000 6.340192 0.000000 0.000000 -6.340192 0.000000 0.000000 -5.826342 0.000000 0.000000 -0.005910 0.000000 0.000000 5.832252 0.000000 0.000000 12.610213 0.000000 0.000000 -9.243752 0.000000 0.000000 0.000000 0.000000 0.000000 0.000000 0.000000 2.309063 0.000000 0.000000 -2.309063 0.000000 0.000000 0.000000 0.000000 0.000000 0.000000 0.000000 0.000000 -2.309063 0.000000 0.000000 2.309063 0.000000 0.000000 0.000000 -3.591006 0.000000 0.000000 1.872585 0.000000 0.000000 -4.621771 0.000000 0.000000 0.000000 0.000000 0.000000 -3.587706 0.000000 0.000000 1.905768 0.000000 0.000000 -4.658254 0.000000 0.000000 0.000000 0.000000
0.124237 0.959911 -0.020651 5.952386 -8.355894 -1.574437 -1.072818 8.618131 0.908574 -0.535262 -1.998007 0.421922 -0.536171 3.822171 0.367462 -0.375624 8.702924 0.281709 -1.171325 10.148136 -0.218056 -2.172066 -17.176867 0.114739 3.370526 7.517320 4.117247 1.525854 -17.037822 75.045169 11.428058 -3.260927 5.383826 4.263412 4.219153 -9.817990 -4.506364 5.014686 -4.349412 -3.005049 -16.347256 -81.682520 -10.332588 16.483788 0.809715 -3.983630 4.308869 14.896037 1.632678 13.570095 0.608882 0.606475 2.261057 -0.001932 4.289307 -2.368881 -1.335014 -0.082620 -5.092916 1.906661 -1.285164 15.470558 2.502037 0.142817 0.912174 -0.122131 -2.988203 -4.662285 2.599423 0.016708 -1.984179 -3.189533
0.124257 0.959484 -0.020804 5.954422 -8.262797 -1.589220 -1.076571 8.569920 0.906885 -0.536736 -2.019438 0.421161 -0.537626 3.800739 0.366553 -0.376770 8.686851 0.281003 -1.165109 10.146850 -0.210697 -2.163406 -17.179211 0.126184 3.377587 7.486361 4.146200 1.519956 -16.984031 75.111888 11.441828 -3.252275 5.355746 4.293508 4.221204 -9.885682 -4.493566 4.993850 -4.349831 -2.988567 -16.305980 -81.708113 -10.331540 16.498909 0.802255 -3.978539 4.303030 14.920656 1.614759 13.445985 0.603409 0.642440 2.322653 0.011020 4.268596 -2.458384 -1.320136 -0.083561 -5.111633 1.891830 -1.278659 15.342422 2.498248 0.139069 0.943018 -0.086745 -2.983656 -4.725079 2.574590 0.025904 -2.117406 -3.178943
0.124283 0.959118 -0.020947 5.956242 -8.179536 -1.602598 -1.079595 8.527658 0.904853 -0.537875 -2.038223 0.420245 -0.538749 3.781952 0.365522 -0.377677 8.672761 0.280207 -1.159336 10.144755 -0.203794 -2.155408 -17.183060 0.136964 3.384745 7.456140 4.174844 1.520937 -16.933738 75.170226 11.455023 -3.247335 5.330926 4.320015 4.223066 -9.943666 -4.483707 4.973844 -4.350155 -2.974741 -16.268023 -81.732377 -10.328451 16.514391 0.796091 -3.973777 4.298247 14.940485 1.599187 13.334077 0.598450 0.674130 2.379850 0.022968 4.250683 -2.543934 -1.305364 -0.083747 -5.109073 1.876955 -1.271305 15.230406 2.495908 0.135180 0.973185 -0.054875 -2.980761 -4.791343 2.550632 0.032538 -2.206652 -3.168097
0.124317 0.958846 -0.021075 5.957239 -8.110963 -1.613695 -1.081313 8.494350 0.902122 -0.538405 -2.053024 0.419010 -0.539266 3.767150 0.364234 -0.378150 8.661661 0.279217 -1.154081 10.141252 -0.197478 -2.148165 -17.189528 0.146866 3.392011 7.426688 4.203194 1.534891 -16.888188 75.215424 11.467894 -3.248953 5.311291 4.341059 4.224523 -9.985958 -4.478636 4.954726 -4.349903 -2.965852 -16.234468 -81.754939 -10.322078 16.529671 0.792211 -3.969700 4.295315 14.952093 1.587687 13.240196 0.594055 0.699342 2.430787 0.033678 4.237189 -2.624113 -1.290512 -0.082676 -5.070292 1.861481 -1.261736 15.143138 2.495995 0.130898 1.003049 -0.028086 -2.980831 -4.864596 2.527505 0.035123 -2.224922 -3.156629
0.124357 0.958636 -0.021193 5.958035 -8.052228 -1.623390 -1.082295 8.466989 0.899042 -0.538597 -2.065180 0.417617 -0.539446 3.754994 0.362823 -0.378380 8.652546 0.278134 -1.149268 10.136938 -0.191620 -2.141584 -17.197501 0.156099 3.399382 7.397969 4.231233 1.555711 -16.846157 75.252285 11.480199 -3.254286 5.294908 4.358495 4.225756 -10.018554 -4.476504 4.936441 -4.349557 -2.959617 -16.204235 -81.776191 -10.313663 16.545308 0.789632 -3.965941 4.293438 14.958910 1.578538 13.158516 0.590134 0.720269 2.477332 0.043362 4.226497 -2.700340 -1.275775 -0.080893 -5.010232 1.845970 -1.251297 15.071988 2.497540 0.126479 1.032235 -0.004810 -2.982560 -4.941321 2.505258 0.035209 -2.199206 -3.144869
0.124400 0.958445 -0.021306 5.960273 -7.998612 -1.632919 -1.083516 8.442501 0.896329 -0.538923 -2.076061 0.416396 -0.539763 3.744113 0.361569 -0.378702 8.644386 0.277173 -1.145115 10.132807 -0.186280 -2.136042 -17.205138 0.164628 3.406976 7.370626 4.258600 1.571967 -16.807456 75.286782 11.490621 -3.258542 5.279250 4.374315 4.227104 -10.049720 -4.474701 4.919655 -4.350469 -2.951855 -16.177395 -81.795982 -10.304900 16.563355 0.786693 -3.961729 4.291286 14.966432 1.568923 13.083762 0.586915 0.739203 2.520696 0.051635 4.216562 -2.772923 -1.261837 -0.079234 -4.952443 1.832056 -1.243153 15.007187 2.499113 0.122532 1.058948 0.016135 -2.983730 -5.014448 2.484923 0.034853 -2.166487 -3.133550
0.124449 0.958264 -0.021415 5.965247 -7.948541 -1.642940 -1.085875 8.419930 0.894774 -0.539834 -2.086094 0.415711 -0.540665 3.734079 0.360792 -0.379429 8.636861 0.276578 -1.141851 10.129231 -0.182305 -2.131590 -17.211754 0.170907 3.415518 7.344531 4.284969 1.578509 -16.772715 75.320215 11.498446 -3.260482 5.263626 4.389354 4.228252 -10.082853 -4.472324 4.904603 -4.354135 -2.940417 -16.154903 -81.814523 -10.293662 16.587396 0.783295 -3.957206 4.287477 14.978704 1.557079 13.014232 0.584637 0.757133 2.561429 0.058088 4.206526 -2.842342 -1.249183 -0.077985 -4.904604 1.820780 -1.239324 14.945502 2.500140 0.118971 1.082488 0.035121 -2.982836 -5.081565 2.466953 0.034652 -2.137518 -3.122866
0.124502 0.958104 -0.021519 5.971666 -7.903590 -1.652791 -1.088470 8.400232 0.893586 -0.540878 -2.094851 0.415198 -0.541702 3.725321 0.360173 -0.380247 8.630293 0.276104 -1.139246 10.125838 -0.178847 -2.128176 -17.218032 0.176479 3.424291 7.319809 4.310666 1.580492 -16.741296 75.351262 11.504387 -3.261354 5.248729 4.402783 4.229502 -10.114554 -4.470273 4.891049 -4.359060 -2.927453 -16.135804 -81.831599 -10.282071 16.613846 0.779544 -3.952232 4.283391 14.991680 1.544769 12.951629 0.583057 0.773063 2.598984 0.063123 4.197249 -2.908116 -1.237327 -0.076849 -4.859037 1.811099 -1.237783 14.890167 2.501212 0.115878 1.103556 0.051776 -2.981398 -5.145081 2.450893 0.034016 -2.101545 -3.112623
0.124551 0.957956 -0.021617 5.977298 -7.863762 -1.661725 -1.089570 8.383200 0.891101 -0.541179 -2.102418 0.414088 -0.541996 3.717754 0.359033 -0.380546 8.624619 0.275233 -1.136828 10.122495 -0.173430 -2.126025 -17.224179 0.185940 3.431243 7.297477 4.336313 1.581964 -16.711097 75.381945 11.509269 -3.260095 5.234115 4.414088 4.232120 -10.142899 -4.468641 4.878959 -4.362112 -2.915231 -16.117303 -81.846410 -10.278205 16.634006 0.774076 -3.945611 4.281844 14.998731 1.534460 12.895782 0.581690 0.786315 2.632916 0.067571 4.189269 -2.969112 -1.225494 -0.075768 -4.816261 1.801516 -1.235630 14.841113 2.502646 0.114110 1.122458 0.066166 -2.981736 -5.205153 2.436412 0.033200 -2.063298 -3.102977
0.124592 0.957820 -0.021707 5.981303 -7.829671 -1.669279 -1.088097 8.369233 0.886291 -0.540195 -2.108613 0.411907 -0.541004 3.711560 0.356953 -0.379948 8.619976 0.273644 -1.134159 10.118354 -0.163794 -2.125337 -17.231740 0.203485 3.435002 7.278291 4.362735 1.584383 -16.681892 75.413963 11.512737 -3.255629 5.218355 4.422447 4.237177 -10.167138 -4.467867 4.868862 -4.361411 -2.904149 -16.098341 -81.859142 -10.289099 16.641476 0.765738 -3.935712 4.286054 14.996513 1.527989 12.847327 0.580597 0.795743 2.662977 0.071407 4.182733 -3.024575 -1.213161 -0.074723 -4.776821 1.791358 -1.231648 14.798969 2.504638 0.114293 1.139378 0.077871 -2.985224 -5.261875 2.423848 0.032209 -2.022859 -3.094220
0.124631 0.957696 -0.021790 5.984526 -7.800705 -1.675921 -1.085128 8.357931 0.880182 -0.538468 -2.113619 0.409130 -0.539270 3.706556 0.354351 -0.378831 8.616228 0.271657 -1.131677 10.114263 -0.152198 -2.125915 -17.239173 0.224919 3.436946 7.261497 4.389108 1.586300 -16.653908 75.445616 11.515137 -3.249038 5.202878 4.428674 4.243588 -10.188024 -4.467515 4.860229 -4.358837 -2.893808 -16.079978 -81.869610 -10.307733 16.642665 0.755662 -3.924158 4.292803 14.988376 1.523521 12.805629 0.579704 0.802487 2.689418 0.074649 4.177496 -3.075260 -1.200853 -0.073733 -4.740172 1.781298 -1.227048 14.763106 2.506994 0.115797 1.154132 0.087313 -2.990498 -5.315153 2.412867 0.031041 -1.980145 -3.086061
0.124668 0.957579 -0.021872 5.987264 -7.775029 -1.682299 -1.082171 8.347883 0.874189 -0.536756 -2.118067 0.406406 -0.537551 3.702110 0.351802 -0.377723 8.612897 0.269711 -1.130230 10.112638 -0.142943 -2.127386 -17.242050 0.242241 3.439143 7.245852 4.413587 1.587405 -16.625731 75.473836 11.518347 -3.242490 5.191525 4.434707 4.249379 -10.205891 -4.466366 4.851437 -4.356899 -2.885285 -16.062605 -81.876457 -10.321103 16.648091 0.745907 -3.914638 4.295258 14.977718 1.518007 12.768605 0.578328 0.809295 2.712538 0.078188 4.173657 -3.122302 -1.189365 -0.072800 -4.705201 1.771855 -1.222572 14.731563 2.509435 0.117601 1.166468 0.095827 -2.995761 -5.364861 2.402131 0.029939 -1.939638 -3.077783
0.124705 0.957466 -0.021954 5.989143 -7.751888 -1.688488 -1.079367 8.338399 0.868690 -0.535144 -2.122265 0.403905 -0.535933 3.697912 0.349465 -0.376675 8.609753 0.267926 -1.131044 10.115279 -0.137626 -2.131369 -17.237043 0.252882 3.442330 7.231083 4.434694 1.587466 -16.595861 75.497369 11.524307 -3.236321 5.188142 4.441854 4.253748 -10.219867 -4.463428 4.841203 -4.356637 -2.880108 -16.045968 -81.877560 -10.324250 16.664494 0.735057 -3.908493 4.289092 14.960764 1.509405 12.735644 0.575667 0.817727 2.731854 0.082676 4.171945 -3.165556 -1.179073 -0.071925 -4.671685 1.763131 -1.217766 14.703768 2.512012 0.119686 1.175812 0.103623 -3.000968 -5.410331 2.390956 0.028998 -1.903388 -3.068831
